<svg width="386" height="960" viewBox="0 0 386 960" fill="none" xmlns="http://www.w3.org/2000/svg">
<path d="M161.288 46.8258C130.26 42.6329 122.433 45.7077 122.154 15.5187C122.713 8.25097 129.981 -7.68211 144.516 15.7982C150.945 23.3455 159.051 27.5384 165.76 29.7746C159.61 27.5384 206.012 38.1605 236.76 32.0108C244.587 37.3219 236.76 47.1053 234.244 49.9006C233.406 50.7392 204.055 58.0069 175.823 56.0502C175.544 55.2117 172.748 47.6644 172.748 47.6644C173.028 47.6644 162.126 46.8258 161.288 46.8258ZM376.245 439.562C374.567 427.263 372.611 416.082 370.654 405.46C355.56 354.027 336.831 299.239 285.119 275.759C263.315 267.373 221.945 269.33 216.075 217.897C216.075 204.2 215.796 62.4794 215.796 62.4794L150.107 75.8967V85.9597C150.107 85.9597 148.988 115.869 148.988 115.59C148.988 115.59 148.988 129.566 149.547 146.617C150.945 226.003 155.138 276.318 68.7639 308.743C15.3741 328.869 12.0198 352.909 6.42923 414.125C6.1497 418.598 5.59065 422.791 5.31112 426.984C5.31112 425.307 -12.2991 598.614 45.8427 874.508C45.8427 874.508 54.7876 919.512 55.9057 925.941C56.4647 929.295 59.8191 933.768 69.0435 940.197C167.996 963.957 189.24 946.626 241.233 953.614C293.784 960.602 341.024 926.5 341.863 925.941C347.174 924.543 364.225 888.764 366.461 844.319C386.867 723.563 381.835 531.248 376.245 439.562Z" fill="white"/>
</svg>
